<svg xmlns="http://www.w3.org/2000/svg" xmlns:xlink="http://www.w3.org/1999/xlink" width="56" zoomAndPan="magnify" viewBox="0 0 42 42" height="56" preserveAspectRatio="xMidYMid meet" version="1.0"><defs><clipPath id="8d04ad23de"><path d="M 0.488281 0 L 41.511719 0 L 41.511719 41.023438 L 0.488281 41.023438 Z M 0.488281 0 " clip-rule="nonzero"/></clipPath><clipPath id="2bd6cc095e"><path d="M 7 0 L 39 0 L 39 41 L 7 41 Z M 7 0 " clip-rule="nonzero"/></clipPath><clipPath id="4bf09b9b3e"><path d="M -2.226562 7.140625 L 34.375 -5.808594 L 46.835938 29.414062 L 10.230469 42.359375 Z M -2.226562 7.140625 " clip-rule="nonzero"/></clipPath><clipPath id="bce6dcbedf"><path d="M -2.226562 7.140625 L 34.375 -5.808594 L 46.835938 29.414062 L 10.230469 42.359375 Z M -2.226562 7.140625 " clip-rule="nonzero"/></clipPath><clipPath id="262fcd57b2"><path d="M 7 0 L 38 0 L 38 41 L 7 41 Z M 7 0 " clip-rule="nonzero"/></clipPath><clipPath id="6811a2f7ba"><path d="M -2.226562 7.140625 L 34.375 -5.808594 L 46.835938 29.414062 L 10.230469 42.359375 Z M -2.226562 7.140625 " clip-rule="nonzero"/></clipPath><clipPath id="22b230e8cc"><path d="M -2.226562 7.140625 L 34.375 -5.808594 L 46.835938 29.414062 L 10.230469 42.359375 Z M -2.226562 7.140625 " clip-rule="nonzero"/></clipPath><clipPath id="8daed7245d"><path d="M 8 0 L 39 0 L 39 41 L 8 41 Z M 8 0 " clip-rule="nonzero"/></clipPath><clipPath id="6b864ecdca"><path d="M -2.226562 7.140625 L 34.375 -5.808594 L 46.835938 29.414062 L 10.230469 42.359375 Z M -2.226562 7.140625 " clip-rule="nonzero"/></clipPath><clipPath id="d1a6a73655"><path d="M -2.226562 7.140625 L 34.375 -5.808594 L 46.835938 29.414062 L 10.230469 42.359375 Z M -2.226562 7.140625 " clip-rule="nonzero"/></clipPath></defs><g clip-path="url(#8d04ad23de)"><path fill="#ffffff" d="M 0.488281 0 L 41.511719 0 L 41.511719 89.371094 L 0.488281 89.371094 Z M 0.488281 0 " fill-opacity="1" fill-rule="nonzero"/><path fill="#ffffff" d="M 0.488281 0 L 41.511719 0 L 41.511719 41.023438 L 0.488281 41.023438 Z M 0.488281 0 " fill-opacity="1" fill-rule="nonzero"/><path fill="#fefefe" d="M 0.488281 0 L 41.511719 0 L 41.511719 41.023438 L 0.488281 41.023438 Z M 0.488281 0 " fill-opacity="1" fill-rule="nonzero"/></g><g clip-path="url(#2bd6cc095e)"><g clip-path="url(#4bf09b9b3e)"><g clip-path="url(#bce6dcbedf)"><path fill="#d4c5f3" d="M 37.652344 3.835938 C 37.324219 3.234375 36.925781 2.683594 36.449219 2.1875 C 36.105469 1.824219 35.523438 1.222656 34.597656 0.796875 C 34.21875 0.621094 33.605469 0.398438 32.796875 0.335938 C 32.800781 0.339844 32.8125 0.347656 32.828125 0.355469 C 32.824219 0.355469 32.8125 0.347656 32.796875 0.335938 C 32.792969 0.332031 31.898438 0.0273438 30.355469 0.324219 C 29.992188 0.402344 29.4375 0.527344 28.757812 0.714844 C 28.414062 0.8125 28.269531 0.855469 27.972656 0.9375 C 27.972656 0.9375 27.101562 1.179688 26.214844 1.351562 C 24.449219 1.699219 22.625 1.683594 22.238281 1.679688 C 21.445312 1.679688 20.664062 1.621094 19.878906 1.53125 C 20.496094 1.601562 21.296875 1.664062 22.238281 1.679688 C 23.773438 1.679688 25.292969 1.519531 26.789062 1.175781 C 27.441406 1.027344 28.117188 0.902344 28.757812 0.714844 C 28.871094 0.683594 29.199219 0.585938 29.648438 0.480469 C 29.648438 0.480469 30.015625 0.390625 30.355469 0.324219 C 29.375 0.355469 28.71875 0.453125 28.277344 0.546875 C 28.265625 0.550781 28.25 0.554688 28.242188 0.554688 C 28.167969 0.574219 27.976562 0.617188 26.808594 0.921875 C 26.46875 1.007812 26.132812 1.105469 25.792969 1.179688 C 25.105469 1.332031 24.410156 1.445312 23.707031 1.496094 C 22.9375 1.554688 22.167969 1.507812 21.402344 1.390625 C 20.648438 1.273438 19.90625 1.097656 19.160156 0.933594 C 18.417969 0.769531 17.667969 0.667969 16.90625 0.707031 C 16.398438 0.730469 15.894531 0.792969 15.40625 0.9375 C 14.871094 1.09375 14.339844 1.28125 13.855469 1.566406 C 13.609375 1.707031 13.359375 1.835938 13.140625 2.019531 C 12.515625 2.320312 11.914062 2.660156 11.390625 3.125 C 10.121094 4.25 9.328125 5.648438 9.003906 7.300781 C 8.652344 9.082031 8.753906 10.847656 9.234375 12.589844 C 9.492188 13.507812 9.746094 14.421875 9.917969 15.363281 C 10.144531 16.617188 10.210938 17.878906 10.054688 19.148438 C 9.847656 20.824219 9.453125 22.457031 8.929688 24.0625 C 8.703125 24.742188 8.472656 25.421875 8.332031 26.128906 C 8.097656 27.332031 7.890625 28.546875 7.75 29.765625 C 7.503906 31.839844 7.585938 33.894531 8.050781 35.933594 C 8.152344 36.371094 8.285156 36.796875 8.496094 37.191406 C 8.976562 38.082031 9.636719 38.828125 10.382812 39.503906 C 10.871094 39.949219 11.414062 40.316406 12.011719 40.601562 C 12.585938 40.875 13.191406 40.96875 13.824219 40.878906 C 14.089844 40.84375 14.355469 40.777344 14.617188 40.71875 C 15.378906 40.542969 16.097656 40.265625 16.714844 39.78125 C 17.5 39.167969 18.273438 38.539062 18.972656 37.832031 C 19.863281 36.929688 20.757812 36.035156 21.558594 35.054688 C 21.59375 35.011719 21.628906 34.964844 21.660156 34.921875 C 21.703125 34.859375 21.78125 34.75 21.824219 34.683594 C 21.972656 34.472656 22.113281 34.269531 22.253906 34.070312 C 22.113281 34.273438 21.972656 34.476562 21.824219 34.683594 C 21.816406 34.703125 21.808594 34.722656 21.800781 34.738281 C 21.839844 34.714844 21.902344 34.675781 21.972656 34.625 C 22.691406 34.125 23.011719 33.476562 23.1875 33.273438 C 24.089844 32.25 24.9375 31.179688 25.765625 30.097656 C 26.140625 29.605469 26.496094 29.101562 26.855469 28.59375 C 27.402344 27.820312 27.933594 27.035156 28.417969 26.21875 C 28.839844 25.507812 29.246094 24.785156 29.640625 24.054688 C 29.953125 23.484375 30.246094 22.902344 30.542969 22.320312 C 30.859375 21.691406 31.167969 21.058594 31.492188 20.433594 C 31.636719 20.15625 31.769531 19.878906 31.917969 19.609375 C 32.316406 18.886719 32.691406 18.15625 33.105469 17.445312 C 33.351562 17.03125 33.589844 16.617188 33.839844 16.207031 C 34.105469 15.78125 34.378906 15.363281 34.648438 14.941406 C 35.140625 14.171875 35.632812 13.398438 36.121094 12.628906 C 36.480469 12.0625 36.820312 11.480469 37.125 10.882812 C 37.40625 10.332031 37.675781 9.773438 37.882812 9.191406 C 38.082031 8.632812 38.246094 8.0625 38.335938 7.476562 C 38.453125 6.722656 38.414062 5.976562 38.222656 5.234375 C 38.09375 4.738281 37.890625 4.28125 37.652344 3.835938 Z M 10.035156 12.851562 C 10.066406 12.976562 10.105469 13.117188 10.144531 13.273438 C 10.109375 13.132812 10.070312 12.992188 10.035156 12.851562 Z M 10.308594 20.886719 C 10.167969 21.949219 9.984375 22.726562 9.519531 24.460938 C 9.359375 25.0625 9.195312 25.664062 9.042969 26.269531 C 8.808594 27.214844 8.601562 28.164062 8.488281 29.132812 C 8.363281 30.203125 8.347656 31.277344 8.460938 32.351562 C 8.515625 32.886719 8.609375 33.414062 8.742188 33.9375 C 8.859375 34.414062 9.023438 34.878906 9.214844 35.332031 C 9.394531 35.773438 9.632812 36.191406 9.917969 36.578125 C 10.09375 36.816406 10.203125 37.09375 10.371094 37.335938 C 10.632812 37.71875 10.875 38.117188 11.179688 38.46875 C 11.410156 38.730469 11.679688 38.933594 11.96875 39.121094 C 12.269531 39.316406 12.570312 39.519531 12.902344 39.664062 C 13.164062 39.78125 13.960938 40.101562 14.996094 40.046875 C 15.078125 40.042969 15.144531 40.035156 15.1875 40.03125 C 15.226562 40.035156 15.265625 40.027344 15.304688 40.011719 C 15.265625 40.027344 15.226562 40.035156 15.1875 40.03125 C 14.609375 40.214844 14.023438 40.320312 13.417969 40.320312 C 13.078125 40.316406 12.753906 40.226562 12.445312 40.082031 C 12.085938 39.914062 11.746094 39.710938 11.429688 39.476562 C 10.554688 38.832031 9.804688 38.0625 9.207031 37.15625 C 8.914062 36.710938 8.734375 36.21875 8.605469 35.707031 C 8.035156 33.445312 7.910156 31.160156 8.1875 28.847656 C 8.265625 28.199219 8.355469 27.554688 8.453125 26.914062 C 8.574219 26.089844 8.796875 25.292969 9.109375 24.523438 C 9.265625 24.144531 9.703125 22.945312 10.023438 21.792969 C 10.082031 21.566406 10.246094 20.960938 10.386719 20.195312 C 10.398438 20.09375 10.40625 19.992188 10.417969 19.894531 C 10.421875 19.90625 10.429688 19.917969 10.433594 19.929688 C 10.417969 20.023438 10.402344 20.113281 10.386719 20.195312 C 10.347656 20.550781 10.328125 20.726562 10.308594 20.886719 Z M 12.773438 2.667969 C 12.46875 2.851562 12.09375 3.097656 11.691406 3.417969 C 11.675781 3.433594 11.65625 3.449219 11.636719 3.464844 C 11.636719 3.464844 11.636719 3.464844 11.632812 3.464844 C 11.652344 3.449219 11.671875 3.433594 11.691406 3.417969 C 12.023438 3.128906 12.382812 2.882812 12.773438 2.667969 C 13.320312 2.34375 14.042969 2.019531 15.015625 1.730469 C 14.234375 1.960938 13.488281 2.285156 12.773438 2.667969 Z M 25.257812 29.800781 C 26.5 28.023438 27.734375 26.238281 28.964844 24.457031 C 27.808594 26.132812 27.277344 26.96875 25.257812 29.800781 Z M 25.257812 29.800781 " fill-opacity="1" fill-rule="nonzero"/></g></g></g><g clip-path="url(#262fcd57b2)"><g clip-path="url(#6811a2f7ba)"><g clip-path="url(#22b230e8cc)"><path fill="#060505" d="M 30.355469 0.324219 C 31.898438 0.0273438 32.792969 0.332031 32.796875 0.335938 C 32.8125 0.347656 32.824219 0.355469 32.828125 0.355469 C 33.226562 0.527344 33.617188 0.722656 34 0.929688 C 34.886719 1.40625 35.628906 2.050781 36.1875 2.898438 C 36.777344 3.796875 37.109375 4.769531 37.109375 5.847656 C 37.109375 7.046875 36.914062 8.210938 36.503906 9.34375 C 35.671875 11.644531 34.628906 13.855469 33.582031 16.0625 C 33.496094 16.242188 33.402344 16.414062 33.308594 16.589844 C 32.609375 17.851562 31.9375 19.128906 31.300781 20.421875 C 30.617188 21.820312 29.851562 23.171875 28.964844 24.457031 C 27.734375 26.238281 26.5 28.023438 25.257812 29.800781 C 24.515625 30.867188 23.40625 32.402344 21.824219 34.683594 C 21.78125 34.75 21.703125 34.859375 21.660156 34.921875 C 21.628906 34.964844 21.59375 35.011719 21.558594 35.054688 C 20.757812 36.035156 19.863281 36.929688 18.972656 37.832031 C 18.273438 38.539062 17.5 39.167969 16.714844 39.78125 C 16.097656 40.265625 15.378906 40.542969 14.617188 40.71875 C 14.355469 40.777344 14.089844 40.84375 13.824219 40.878906 C 13.191406 40.96875 12.585938 40.875 12.011719 40.601562 C 11.414062 40.316406 10.871094 39.949219 10.382812 39.503906 C 9.636719 38.828125 8.976562 38.082031 8.496094 37.191406 C 8.285156 36.796875 8.152344 36.371094 8.050781 35.933594 C 7.585938 33.894531 7.503906 31.839844 7.75 29.765625 C 7.890625 28.546875 8.097656 27.332031 8.332031 26.128906 C 8.472656 25.421875 8.703125 24.742188 8.929688 24.0625 C 9.453125 22.457031 9.847656 20.824219 10.054688 19.148438 C 10.210938 17.878906 10.144531 16.617188 9.917969 15.363281 C 9.746094 14.421875 9.492188 13.507812 9.234375 12.589844 C 8.753906 10.847656 8.652344 9.082031 9.003906 7.300781 C 9.328125 5.648438 10.121094 4.25 11.390625 3.125 C 11.914062 2.660156 12.515625 2.320312 13.140625 2.019531 C 13.496094 1.875 13.851562 1.730469 14.203125 1.585938 C 14.929688 1.292969 15.675781 1.144531 16.464844 1.1875 C 17.46875 1.242188 18.464844 1.351562 19.457031 1.480469 C 20.378906 1.601562 21.304688 1.675781 22.238281 1.679688 C 23.773438 1.679688 25.292969 1.519531 26.789062 1.175781 C 27.441406 1.027344 28.117188 0.902344 28.757812 0.714844 C 28.871094 0.683594 29.199219 0.585938 29.648438 0.480469 C 29.648438 0.480469 30.015625 0.390625 30.355469 0.324219 Z M 10.855469 4.339844 C 10.835938 4.351562 10.824219 4.367188 10.828125 4.390625 L 10.828125 4.386719 C 10.785156 4.414062 10.753906 4.449219 10.742188 4.503906 L 10.742188 4.5 C 10.230469 5.171875 9.929688 5.933594 9.726562 6.746094 L 9.730469 6.742188 C 9.699219 6.785156 9.691406 6.832031 9.695312 6.882812 L 9.695312 6.878906 C 9.671875 6.921875 9.664062 6.96875 9.667969 7.015625 C 9.632812 7.054688 9.636719 7.101562 9.628906 7.144531 C 9.441406 8.320312 9.402344 9.496094 9.5625 10.679688 C 9.683594 11.5625 9.917969 12.414062 10.144531 13.273438 C 10.402344 14.246094 10.59375 15.230469 10.667969 16.238281 C 10.796875 17.933594 10.546875 19.324219 10.386719 20.195312 C 10.246094 20.960938 10.082031 21.566406 10.023438 21.792969 C 9.703125 22.945312 9.265625 24.144531 9.109375 24.523438 C 8.796875 25.292969 8.574219 26.089844 8.453125 26.914062 C 8.355469 27.554688 8.265625 28.199219 8.1875 28.847656 C 7.910156 31.160156 8.035156 33.445312 8.605469 35.707031 C 8.734375 36.21875 8.914062 36.710938 9.207031 37.15625 C 9.804688 38.0625 10.554688 38.832031 11.429688 39.476562 C 11.746094 39.710938 12.085938 39.914062 12.445312 40.082031 C 12.753906 40.226562 13.078125 40.316406 13.417969 40.320312 C 14.023438 40.320312 14.609375 40.214844 15.1875 40.03125 C 15.269531 40.039062 15.339844 39.996094 15.414062 39.96875 C 15.839844 39.8125 16.21875 39.578125 16.578125 39.304688 C 17.457031 38.636719 18.265625 37.890625 19.054688 37.125 C 20.140625 36.066406 21.152344 34.949219 22.042969 33.726562 C 22.832031 32.648438 23.613281 31.558594 24.363281 30.453125 C 25.609375 28.621094 26.847656 26.785156 28.066406 24.9375 C 29.183594 23.242188 30.183594 21.488281 31.035156 19.648438 C 31.425781 18.796875 31.855469 17.96875 32.292969 17.140625 C 32.734375 16.296875 33.140625 15.441406 33.507812 14.566406 C 34.046875 13.292969 34.585938 12.019531 35.125 10.746094 C 35.421875 10.035156 35.71875 9.324219 35.96875 8.59375 C 36.296875 7.632812 36.410156 6.648438 36.347656 5.640625 C 36.328125 5.363281 36.289062 5.089844 36.214844 4.824219 C 35.96875 3.9375 35.476562 3.203125 34.8125 2.578125 C 34.054688 1.867188 33.144531 1.40625 32.175781 1.066406 C 31.558594 0.847656 30.910156 0.824219 30.257812 0.929688 C 29.925781 0.980469 29.617188 1.132812 29.308594 1.257812 C 28.621094 1.542969 27.917969 1.773438 27.195312 1.921875 C 26.574219 2.054688 25.9375 2.089844 25.308594 2.167969 C 24.902344 2.21875 24.492188 2.203125 24.085938 2.246094 C 22.609375 2.402344 21.136719 2.40625 19.671875 2.136719 C 19.210938 2.050781 18.75 1.972656 18.289062 1.894531 C 17.585938 1.777344 16.882812 1.652344 16.171875 1.609375 C 15.78125 1.582031 15.394531 1.617188 15.015625 1.730469 C 14.234375 1.960938 13.488281 2.285156 12.773438 2.667969 C 12.101562 3.035156 11.511719 3.507812 11.03125 4.109375 C 10.992188 4.15625 10.925781 4.1875 10.9375 4.265625 C 10.894531 4.269531 10.875 4.300781 10.859375 4.335938 Z M 10.855469 4.339844 " fill-opacity="1" fill-rule="nonzero"/></g></g></g><g clip-path="url(#8daed7245d)"><g clip-path="url(#6b864ecdca)"><g clip-path="url(#d1a6a73655)"><path fill="#d4c5f3" d="M 21.800781 34.738281 C 21.808594 34.722656 21.816406 34.703125 21.824219 34.683594 C 23.265625 32.609375 24.453125 30.933594 25.257812 29.800781 C 27.277344 26.96875 27.808594 26.132812 28.964844 24.457031 C 29.851562 23.171875 30.617188 21.820312 31.300781 20.421875 C 31.9375 19.128906 32.609375 17.851562 33.308594 16.589844 C 33.402344 16.414062 33.496094 16.242188 33.582031 16.0625 C 34.628906 13.855469 35.671875 11.644531 36.503906 9.34375 C 36.914062 8.210938 37.109375 7.046875 37.109375 5.847656 C 37.109375 4.769531 36.777344 3.796875 36.1875 2.898438 C 35.628906 2.050781 34.886719 1.40625 34 0.929688 C 33.828125 0.835938 33.367188 0.707031 32.828125 0.355469 C 32.8125 0.347656 32.800781 0.339844 32.796875 0.335938 C 33.605469 0.398438 34.21875 0.621094 34.597656 0.796875 C 35.523438 1.222656 36.105469 1.824219 36.449219 2.1875 C 36.925781 2.683594 37.324219 3.234375 37.652344 3.835938 C 37.890625 4.28125 38.09375 4.738281 38.222656 5.234375 C 38.414062 5.976562 38.453125 6.722656 38.335938 7.476562 C 38.246094 8.0625 38.082031 8.632812 37.882812 9.191406 C 37.675781 9.773438 37.40625 10.332031 37.125 10.882812 C 36.820312 11.480469 36.480469 12.0625 36.121094 12.628906 C 35.632812 13.398438 35.140625 14.171875 34.648438 14.941406 C 34.378906 15.363281 34.105469 15.78125 33.839844 16.207031 C 33.589844 16.617188 33.351562 17.03125 33.105469 17.445312 C 32.691406 18.15625 32.316406 18.886719 31.917969 19.609375 C 31.769531 19.878906 31.636719 20.15625 31.492188 20.433594 C 31.167969 21.058594 30.859375 21.691406 30.542969 22.320312 C 30.246094 22.902344 29.953125 23.484375 29.640625 24.054688 C 29.246094 24.785156 28.839844 25.507812 28.417969 26.21875 C 27.933594 27.035156 27.402344 27.820312 26.855469 28.59375 C 26.496094 29.101562 26.140625 29.605469 25.765625 30.097656 C 24.9375 31.179688 24.089844 32.25 23.1875 33.273438 C 23.011719 33.476562 22.691406 34.125 21.972656 34.625 C 21.902344 34.675781 21.839844 34.714844 21.800781 34.738281 Z M 28.277344 0.546875 C 28.265625 0.550781 28.25 0.554688 28.242188 0.554688 C 28.167969 0.574219 27.976562 0.617188 26.808594 0.921875 C 26.46875 1.007812 26.132812 1.105469 25.792969 1.179688 C 25.105469 1.332031 24.410156 1.445312 23.707031 1.496094 C 22.9375 1.554688 22.167969 1.507812 21.402344 1.390625 C 20.648438 1.273438 19.90625 1.097656 19.160156 0.933594 C 18.417969 0.769531 17.667969 0.667969 16.90625 0.707031 C 16.398438 0.730469 15.894531 0.792969 15.40625 0.9375 C 14.871094 1.09375 14.339844 1.28125 13.855469 1.566406 C 13.609375 1.707031 13.359375 1.835938 13.140625 2.019531 C 13.496094 1.875 13.851562 1.730469 14.203125 1.585938 C 14.929688 1.292969 15.675781 1.144531 16.464844 1.1875 C 17.46875 1.242188 18.464844 1.351562 19.457031 1.480469 C 20.109375 1.566406 21.066406 1.664062 22.238281 1.679688 C 22.625 1.683594 24.449219 1.699219 26.214844 1.351562 C 27.101562 1.179688 27.972656 0.9375 27.972656 0.9375 C 28.269531 0.855469 28.414062 0.8125 28.757812 0.714844 C 29.4375 0.527344 29.992188 0.402344 30.355469 0.324219 C 29.375 0.355469 28.71875 0.453125 28.277344 0.546875 Z M 11.042969 3.984375 C 10.84375 4.1875 10.644531 4.390625 10.445312 4.59375 C 10.273438 4.878906 10.089844 5.234375 9.929688 5.664062 C 9.777344 6.070312 9.683594 6.445312 9.628906 6.765625 C 9.609375 6.816406 9.578125 6.894531 9.546875 6.992188 C 9.164062 8.171875 9.289062 9.246094 9.5625 10.679688 C 9.796875 11.886719 9.773438 11.867188 10.144531 13.273438 C 10.402344 14.246094 10.59375 15.230469 10.667969 16.238281 C 10.738281 17.148438 10.601562 18.167969 10.386719 20.195312 C 10.347656 20.550781 10.328125 20.726562 10.308594 20.886719 C 10.167969 21.949219 9.984375 22.726562 9.519531 24.460938 C 9.359375 25.0625 9.195312 25.664062 9.042969 26.269531 C 8.808594 27.214844 8.601562 28.164062 8.488281 29.132812 C 8.363281 30.203125 8.347656 31.277344 8.460938 32.351562 C 8.515625 32.886719 8.609375 33.414062 8.742188 33.9375 C 8.859375 34.414062 9.023438 34.878906 9.214844 35.332031 C 9.394531 35.773438 9.632812 36.191406 9.917969 36.578125 C 10.09375 36.816406 10.203125 37.09375 10.371094 37.335938 C 10.632812 37.71875 10.875 38.117188 11.179688 38.46875 C 11.410156 38.730469 11.679688 38.933594 11.96875 39.121094 C 12.269531 39.316406 12.570312 39.519531 12.902344 39.664062 C 13.164062 39.78125 13.960938 40.101562 14.996094 40.046875 C 15.078125 40.042969 15.144531 40.035156 15.1875 40.03125 C 15.269531 40.039062 15.339844 39.996094 15.414062 39.96875 C 15.839844 39.8125 16.21875 39.578125 16.578125 39.304688 C 17.457031 38.636719 18.265625 37.890625 19.054688 37.125 C 20.140625 36.066406 21.152344 34.949219 22.042969 33.726562 C 22.832031 32.648438 23.613281 31.558594 24.363281 30.453125 C 25.609375 28.621094 26.847656 26.785156 28.066406 24.9375 C 29.183594 23.242188 30.183594 21.488281 31.035156 19.648438 C 31.425781 18.796875 31.855469 17.96875 32.292969 17.140625 C 32.734375 16.296875 33.140625 15.441406 33.507812 14.566406 C 34.046875 13.292969 34.585938 12.019531 35.125 10.746094 C 35.421875 10.035156 35.71875 9.324219 35.96875 8.59375 C 36.296875 7.632812 36.410156 6.648438 36.347656 5.640625 C 36.328125 5.363281 36.289062 5.089844 36.214844 4.824219 C 35.96875 3.9375 35.476562 3.203125 34.8125 2.578125 C 34.054688 1.867188 33.144531 1.40625 32.175781 1.066406 C 31.558594 0.847656 30.910156 0.824219 30.257812 0.929688 C 29.925781 0.980469 29.617188 1.132812 29.308594 1.257812 C 28.621094 1.542969 27.917969 1.773438 27.195312 1.921875 C 26.574219 2.054688 25.9375 2.089844 25.308594 2.167969 C 24.902344 2.21875 24.492188 2.203125 24.085938 2.246094 C 22.609375 2.402344 21.136719 2.40625 19.671875 2.136719 C 19.210938 2.050781 18.75 1.972656 18.289062 1.894531 C 17.585938 1.777344 16.882812 1.652344 16.171875 1.609375 C 15.78125 1.582031 15.394531 1.617188 15.015625 1.730469 C 14.042969 2.019531 13.320312 2.34375 12.773438 2.667969 C 12.308594 2.945312 11.691406 3.367188 11.042969 3.984375 Z M 11.042969 3.984375 " fill-opacity="1" fill-rule="nonzero"/></g></g></g></svg>