<svg xmlns="http://www.w3.org/2000/svg" xmlns:xlink="http://www.w3.org/1999/xlink" width="202" zoomAndPan="magnify" viewBox="0 0 151.5 32.999998" height="44" preserveAspectRatio="xMidYMid meet" version="1.0"><defs><g/><clipPath id="652b4de238"><path d="M 134 11 L 151 11 L 151 32.945312 L 134 32.945312 Z M 134 11 " clip-rule="nonzero"/></clipPath><clipPath id="9b93b92ab9"><path d="M 133 11 L 151 11 L 151 32.945312 L 133 32.945312 Z M 133 11 " clip-rule="nonzero"/></clipPath></defs><g fill="#000000" fill-opacity="1"><g transform="translate(1.069229, 26.9087)"><g><path d="M 3.03125 -20.1875 L 11.53125 -20.1875 C 13.664062 -20.1875 15.5625 -19.765625 17.21875 -18.921875 C 18.875 -18.078125 20.15625 -16.890625 21.0625 -15.359375 C 21.976562 -13.828125 22.4375 -12.070312 22.4375 -10.09375 C 22.4375 -8.113281 21.976562 -6.359375 21.0625 -4.828125 C 20.15625 -3.296875 18.875 -2.109375 17.21875 -1.265625 C 15.5625 -0.421875 13.664062 0 11.53125 0 L 3.03125 0 Z M 11.359375 -2.515625 C 12.992188 -2.515625 14.429688 -2.828125 15.671875 -3.453125 C 16.910156 -4.085938 17.867188 -4.976562 18.546875 -6.125 C 19.222656 -7.269531 19.5625 -8.59375 19.5625 -10.09375 C 19.5625 -11.59375 19.222656 -12.914062 18.546875 -14.0625 C 17.867188 -15.207031 16.910156 -16.097656 15.671875 -16.734375 C 14.429688 -17.367188 12.992188 -17.6875 11.359375 -17.6875 L 5.90625 -17.6875 L 5.90625 -2.515625 Z M 11.359375 -2.515625 "/></g></g></g><g fill="#000000" fill-opacity="1"><g transform="translate(29.582365, 26.9087)"><g><path d="M 8.1875 -15.4375 C 10.300781 -15.4375 11.921875 -14.914062 13.046875 -13.875 C 14.171875 -12.832031 14.734375 -11.285156 14.734375 -9.234375 L 14.734375 0 L 12.109375 0 L 12.109375 -2.015625 C 11.648438 -1.304688 10.992188 -0.765625 10.140625 -0.390625 C 9.285156 -0.015625 8.269531 0.171875 7.09375 0.171875 C 5.382812 0.171875 4.015625 -0.238281 2.984375 -1.0625 C 1.953125 -1.894531 1.4375 -2.984375 1.4375 -4.328125 C 1.4375 -5.671875 1.925781 -6.75 2.90625 -7.5625 C 3.894531 -8.382812 5.453125 -8.796875 7.578125 -8.796875 L 11.96875 -8.796875 L 11.96875 -9.34375 C 11.96875 -10.539062 11.617188 -11.453125 10.921875 -12.078125 C 10.234375 -12.710938 9.21875 -13.03125 7.875 -13.03125 C 6.96875 -13.03125 6.082031 -12.878906 5.21875 -12.578125 C 4.351562 -12.285156 3.625 -11.890625 3.03125 -11.390625 L 1.875 -13.46875 C 2.664062 -14.101562 3.609375 -14.585938 4.703125 -14.921875 C 5.796875 -15.265625 6.957031 -15.4375 8.1875 -15.4375 Z M 7.5625 -1.96875 C 8.613281 -1.96875 9.523438 -2.203125 10.296875 -2.671875 C 11.066406 -3.140625 11.625 -3.804688 11.96875 -4.671875 L 11.96875 -6.8125 L 7.703125 -6.8125 C 5.359375 -6.8125 4.1875 -6.019531 4.1875 -4.4375 C 4.1875 -3.664062 4.484375 -3.0625 5.078125 -2.625 C 5.671875 -2.1875 6.5 -1.96875 7.5625 -1.96875 Z M 7.5625 -1.96875 "/></g></g></g><g fill="#000000" fill-opacity="1"><g transform="translate(51.522667, 26.9087)"><g><path d="M 11.21875 -0.890625 C 10.8125 -0.546875 10.3125 -0.28125 9.71875 -0.09375 C 9.125 0.0820312 8.507812 0.171875 7.875 0.171875 C 6.332031 0.171875 5.140625 -0.238281 4.296875 -1.0625 C 3.453125 -1.894531 3.03125 -3.078125 3.03125 -4.609375 L 3.03125 -13.015625 L 0.4375 -13.015625 L 0.4375 -15.28125 L 3.03125 -15.28125 L 3.03125 -18.640625 L 5.796875 -18.640625 L 5.796875 -15.28125 L 10.1875 -15.28125 L 10.1875 -13.015625 L 5.796875 -13.015625 L 5.796875 -4.734375 C 5.796875 -3.898438 6 -3.257812 6.40625 -2.8125 C 6.820312 -2.375 7.414062 -2.15625 8.1875 -2.15625 C 9.03125 -2.15625 9.753906 -2.398438 10.359375 -2.890625 Z M 11.21875 -0.890625 "/></g></g></g><g fill="#000000" fill-opacity="1"><g transform="translate(68.158576, 26.9087)"><g><path d="M 16.4375 -7.5625 C 16.4375 -7.34375 16.421875 -7.0625 16.390625 -6.71875 L 3.984375 -6.71875 C 4.148438 -5.375 4.738281 -4.289062 5.75 -3.46875 C 6.757812 -2.65625 8.015625 -2.25 9.515625 -2.25 C 11.347656 -2.25 12.820312 -2.863281 13.9375 -4.09375 L 15.453125 -2.3125 C 14.765625 -1.5 13.90625 -0.878906 12.875 -0.453125 C 11.84375 -0.0351562 10.695312 0.171875 9.4375 0.171875 C 7.820312 0.171875 6.390625 -0.15625 5.140625 -0.8125 C 3.890625 -1.476562 2.921875 -2.40625 2.234375 -3.59375 C 1.554688 -4.789062 1.21875 -6.140625 1.21875 -7.640625 C 1.21875 -9.117188 1.546875 -10.453125 2.203125 -11.640625 C 2.867188 -12.835938 3.78125 -13.769531 4.9375 -14.4375 C 6.101562 -15.101562 7.421875 -15.4375 8.890625 -15.4375 C 10.347656 -15.4375 11.648438 -15.101562 12.796875 -14.4375 C 13.941406 -13.769531 14.832031 -12.835938 15.46875 -11.640625 C 16.113281 -10.453125 16.4375 -9.09375 16.4375 -7.5625 Z M 8.890625 -13.09375 C 7.554688 -13.09375 6.441406 -12.6875 5.546875 -11.875 C 4.660156 -11.070312 4.140625 -10.015625 3.984375 -8.703125 L 13.78125 -8.703125 C 13.632812 -9.992188 13.113281 -11.046875 12.21875 -11.859375 C 11.320312 -12.679688 10.210938 -13.09375 8.890625 -13.09375 Z M 8.890625 -13.09375 "/></g></g></g><g fill="#000000" fill-opacity="1"><g transform="translate(90.502478, 26.9087)"><g><path d="M 11.21875 -0.890625 C 10.8125 -0.546875 10.3125 -0.28125 9.71875 -0.09375 C 9.125 0.0820312 8.507812 0.171875 7.875 0.171875 C 6.332031 0.171875 5.140625 -0.238281 4.296875 -1.0625 C 3.453125 -1.894531 3.03125 -3.078125 3.03125 -4.609375 L 3.03125 -13.015625 L 0.4375 -13.015625 L 0.4375 -15.28125 L 3.03125 -15.28125 L 3.03125 -18.640625 L 5.796875 -18.640625 L 5.796875 -15.28125 L 10.1875 -15.28125 L 10.1875 -13.015625 L 5.796875 -13.015625 L 5.796875 -4.734375 C 5.796875 -3.898438 6 -3.257812 6.40625 -2.8125 C 6.820312 -2.375 7.414062 -2.15625 8.1875 -2.15625 C 9.03125 -2.15625 9.753906 -2.398438 10.359375 -2.890625 Z M 11.21875 -0.890625 "/></g></g></g><g fill="#000000" fill-opacity="1"><g transform="translate(107.138386, 26.9087)"><g><path d="M 2.625 -15.28125 L 5.390625 -15.28125 L 5.390625 0 L 2.625 0 Z M 4 -18.234375 C 3.46875 -18.234375 3.019531 -18.40625 2.65625 -18.75 C 2.300781 -19.09375 2.125 -19.515625 2.125 -20.015625 C 2.125 -20.515625 2.300781 -20.941406 2.65625 -21.296875 C 3.019531 -21.648438 3.46875 -21.828125 4 -21.828125 C 4.539062 -21.828125 4.988281 -21.660156 5.34375 -21.328125 C 5.695312 -20.992188 5.875 -20.578125 5.875 -20.078125 C 5.875 -19.554688 5.695312 -19.117188 5.34375 -18.765625 C 4.988281 -18.410156 4.539062 -18.234375 4 -18.234375 Z M 4 -18.234375 "/></g></g></g><g fill="#000000" fill-opacity="1"><g transform="translate(119.882492, 26.9087)"><g><path d="M 8.21875 -19.296875 C 6.5625 -19.296875 5.734375 -18.398438 5.734375 -16.609375 L 5.734375 -15.28125 L 10.1875 -15.28125 L 10.1875 -13.015625 L 5.796875 -13.015625 L 5.796875 0 L 3.03125 0 L 3.03125 -13.015625 L 0.4375 -13.015625 L 0.4375 -15.28125 L 3.03125 -15.28125 L 3.03125 -16.640625 C 3.03125 -18.160156 3.472656 -19.363281 4.359375 -20.25 C 5.242188 -21.132812 6.484375 -21.578125 8.078125 -21.578125 C 8.691406 -21.578125 9.265625 -21.5 9.796875 -21.34375 C 10.335938 -21.1875 10.800781 -20.96875 11.1875 -20.6875 L 10.359375 -18.578125 C 9.722656 -19.054688 9.007812 -19.296875 8.21875 -19.296875 Z M 8.21875 -19.296875 "/></g></g></g><g clip-path="url(#652b4de238)"><g fill="#000000" fill-opacity="1"><g transform="translate(134.759891, 26.9087)"><g><path d="M 16.15625 -15.28125 L 8.734375 1.53125 C 8.085938 3.082031 7.328125 4.175781 6.453125 4.8125 C 5.578125 5.445312 4.519531 5.765625 3.28125 5.765625 C 2.53125 5.765625 1.804688 5.644531 1.109375 5.40625 C 0.410156 5.164062 -0.171875 4.816406 -0.640625 4.359375 L 0.546875 2.28125 C 1.335938 3.03125 2.25 3.40625 3.28125 3.40625 C 3.957031 3.40625 4.519531 3.226562 4.96875 2.875 C 5.425781 2.519531 5.835938 1.90625 6.203125 1.03125 L 6.6875 -0.03125 L -0.0625 -15.28125 L 2.828125 -15.28125 L 8.15625 -3.0625 L 13.4375 -15.28125 Z M 16.15625 -15.28125 "/></g></g></g></g><g fill="#000000" fill-opacity="1"><g transform="translate(0.8398, 26.679273)"><g><path d="M 3.03125 -20.1875 L 11.53125 -20.1875 C 13.664062 -20.1875 15.5625 -19.765625 17.21875 -18.921875 C 18.875 -18.078125 20.15625 -16.890625 21.0625 -15.359375 C 21.976562 -13.828125 22.4375 -12.070312 22.4375 -10.09375 C 22.4375 -8.113281 21.976562 -6.359375 21.0625 -4.828125 C 20.15625 -3.296875 18.875 -2.109375 17.21875 -1.265625 C 15.5625 -0.421875 13.664062 0 11.53125 0 L 3.03125 0 Z M 11.359375 -2.515625 C 12.992188 -2.515625 14.429688 -2.828125 15.671875 -3.453125 C 16.910156 -4.085938 17.867188 -4.976562 18.546875 -6.125 C 19.222656 -7.269531 19.5625 -8.59375 19.5625 -10.09375 C 19.5625 -11.59375 19.222656 -12.914062 18.546875 -14.0625 C 17.867188 -15.207031 16.910156 -16.097656 15.671875 -16.734375 C 14.429688 -17.367188 12.992188 -17.6875 11.359375 -17.6875 L 5.90625 -17.6875 L 5.90625 -2.515625 Z M 11.359375 -2.515625 "/></g></g></g><g fill="#000000" fill-opacity="1"><g transform="translate(29.352936, 26.679273)"><g><path d="M 8.1875 -15.4375 C 10.300781 -15.4375 11.921875 -14.914062 13.046875 -13.875 C 14.171875 -12.832031 14.734375 -11.285156 14.734375 -9.234375 L 14.734375 0 L 12.109375 0 L 12.109375 -2.015625 C 11.648438 -1.304688 10.992188 -0.765625 10.140625 -0.390625 C 9.285156 -0.015625 8.269531 0.171875 7.09375 0.171875 C 5.382812 0.171875 4.015625 -0.238281 2.984375 -1.0625 C 1.953125 -1.894531 1.4375 -2.984375 1.4375 -4.328125 C 1.4375 -5.671875 1.925781 -6.75 2.90625 -7.5625 C 3.894531 -8.382812 5.453125 -8.796875 7.578125 -8.796875 L 11.96875 -8.796875 L 11.96875 -9.34375 C 11.96875 -10.539062 11.617188 -11.453125 10.921875 -12.078125 C 10.234375 -12.710938 9.21875 -13.03125 7.875 -13.03125 C 6.96875 -13.03125 6.082031 -12.878906 5.21875 -12.578125 C 4.351562 -12.285156 3.625 -11.890625 3.03125 -11.390625 L 1.875 -13.46875 C 2.664062 -14.101562 3.609375 -14.585938 4.703125 -14.921875 C 5.796875 -15.265625 6.957031 -15.4375 8.1875 -15.4375 Z M 7.5625 -1.96875 C 8.613281 -1.96875 9.523438 -2.203125 10.296875 -2.671875 C 11.066406 -3.140625 11.625 -3.804688 11.96875 -4.671875 L 11.96875 -6.8125 L 7.703125 -6.8125 C 5.359375 -6.8125 4.1875 -6.019531 4.1875 -4.4375 C 4.1875 -3.664062 4.484375 -3.0625 5.078125 -2.625 C 5.671875 -2.1875 6.5 -1.96875 7.5625 -1.96875 Z M 7.5625 -1.96875 "/></g></g></g><g fill="#000000" fill-opacity="1"><g transform="translate(51.293238, 26.679273)"><g><path d="M 11.21875 -0.890625 C 10.8125 -0.546875 10.3125 -0.28125 9.71875 -0.09375 C 9.125 0.0820312 8.507812 0.171875 7.875 0.171875 C 6.332031 0.171875 5.140625 -0.238281 4.296875 -1.0625 C 3.453125 -1.894531 3.03125 -3.078125 3.03125 -4.609375 L 3.03125 -13.015625 L 0.4375 -13.015625 L 0.4375 -15.28125 L 3.03125 -15.28125 L 3.03125 -18.640625 L 5.796875 -18.640625 L 5.796875 -15.28125 L 10.1875 -15.28125 L 10.1875 -13.015625 L 5.796875 -13.015625 L 5.796875 -4.734375 C 5.796875 -3.898438 6 -3.257812 6.40625 -2.8125 C 6.820312 -2.375 7.414062 -2.15625 8.1875 -2.15625 C 9.03125 -2.15625 9.753906 -2.398438 10.359375 -2.890625 Z M 11.21875 -0.890625 "/></g></g></g><g fill="#000000" fill-opacity="1"><g transform="translate(67.929147, 26.679273)"><g><path d="M 16.4375 -7.5625 C 16.4375 -7.34375 16.421875 -7.0625 16.390625 -6.71875 L 3.984375 -6.71875 C 4.148438 -5.375 4.738281 -4.289062 5.75 -3.46875 C 6.757812 -2.65625 8.015625 -2.25 9.515625 -2.25 C 11.347656 -2.25 12.820312 -2.863281 13.9375 -4.09375 L 15.453125 -2.3125 C 14.765625 -1.5 13.90625 -0.878906 12.875 -0.453125 C 11.84375 -0.0351562 10.695312 0.171875 9.4375 0.171875 C 7.820312 0.171875 6.390625 -0.15625 5.140625 -0.8125 C 3.890625 -1.476562 2.921875 -2.40625 2.234375 -3.59375 C 1.554688 -4.789062 1.21875 -6.140625 1.21875 -7.640625 C 1.21875 -9.117188 1.546875 -10.453125 2.203125 -11.640625 C 2.867188 -12.835938 3.78125 -13.769531 4.9375 -14.4375 C 6.101562 -15.101562 7.421875 -15.4375 8.890625 -15.4375 C 10.347656 -15.4375 11.648438 -15.101562 12.796875 -14.4375 C 13.941406 -13.769531 14.832031 -12.835938 15.46875 -11.640625 C 16.113281 -10.453125 16.4375 -9.09375 16.4375 -7.5625 Z M 8.890625 -13.09375 C 7.554688 -13.09375 6.441406 -12.6875 5.546875 -11.875 C 4.660156 -11.070312 4.140625 -10.015625 3.984375 -8.703125 L 13.78125 -8.703125 C 13.632812 -9.992188 13.113281 -11.046875 12.21875 -11.859375 C 11.320312 -12.679688 10.210938 -13.09375 8.890625 -13.09375 Z M 8.890625 -13.09375 "/></g></g></g><g fill="#000000" fill-opacity="1"><g transform="translate(90.273048, 26.679273)"><g><path d="M 11.21875 -0.890625 C 10.8125 -0.546875 10.3125 -0.28125 9.71875 -0.09375 C 9.125 0.0820312 8.507812 0.171875 7.875 0.171875 C 6.332031 0.171875 5.140625 -0.238281 4.296875 -1.0625 C 3.453125 -1.894531 3.03125 -3.078125 3.03125 -4.609375 L 3.03125 -13.015625 L 0.4375 -13.015625 L 0.4375 -15.28125 L 3.03125 -15.28125 L 3.03125 -18.640625 L 5.796875 -18.640625 L 5.796875 -15.28125 L 10.1875 -15.28125 L 10.1875 -13.015625 L 5.796875 -13.015625 L 5.796875 -4.734375 C 5.796875 -3.898438 6 -3.257812 6.40625 -2.8125 C 6.820312 -2.375 7.414062 -2.15625 8.1875 -2.15625 C 9.03125 -2.15625 9.753906 -2.398438 10.359375 -2.890625 Z M 11.21875 -0.890625 "/></g></g></g><g fill="#000000" fill-opacity="1"><g transform="translate(106.908957, 26.679273)"><g><path d="M 2.625 -15.28125 L 5.390625 -15.28125 L 5.390625 0 L 2.625 0 Z M 4 -18.234375 C 3.46875 -18.234375 3.019531 -18.40625 2.65625 -18.75 C 2.300781 -19.09375 2.125 -19.515625 2.125 -20.015625 C 2.125 -20.515625 2.300781 -20.941406 2.65625 -21.296875 C 3.019531 -21.648438 3.46875 -21.828125 4 -21.828125 C 4.539062 -21.828125 4.988281 -21.660156 5.34375 -21.328125 C 5.695312 -20.992188 5.875 -20.578125 5.875 -20.078125 C 5.875 -19.554688 5.695312 -19.117188 5.34375 -18.765625 C 4.988281 -18.410156 4.539062 -18.234375 4 -18.234375 Z M 4 -18.234375 "/></g></g></g><g fill="#000000" fill-opacity="1"><g transform="translate(119.653063, 26.679273)"><g><path d="M 8.21875 -19.296875 C 6.5625 -19.296875 5.734375 -18.398438 5.734375 -16.609375 L 5.734375 -15.28125 L 10.1875 -15.28125 L 10.1875 -13.015625 L 5.796875 -13.015625 L 5.796875 0 L 3.03125 0 L 3.03125 -13.015625 L 0.4375 -13.015625 L 0.4375 -15.28125 L 3.03125 -15.28125 L 3.03125 -16.640625 C 3.03125 -18.160156 3.472656 -19.363281 4.359375 -20.25 C 5.242188 -21.132812 6.484375 -21.578125 8.078125 -21.578125 C 8.691406 -21.578125 9.265625 -21.5 9.796875 -21.34375 C 10.335938 -21.1875 10.800781 -20.96875 11.1875 -20.6875 L 10.359375 -18.578125 C 9.722656 -19.054688 9.007812 -19.296875 8.21875 -19.296875 Z M 8.21875 -19.296875 "/></g></g></g><g clip-path="url(#9b93b92ab9)"><g fill="#000000" fill-opacity="1"><g transform="translate(134.530462, 26.679273)"><g><path d="M 16.15625 -15.28125 L 8.734375 1.53125 C 8.085938 3.082031 7.328125 4.175781 6.453125 4.8125 C 5.578125 5.445312 4.519531 5.765625 3.28125 5.765625 C 2.53125 5.765625 1.804688 5.644531 1.109375 5.40625 C 0.410156 5.164062 -0.171875 4.816406 -0.640625 4.359375 L 0.546875 2.28125 C 1.335938 3.03125 2.25 3.40625 3.28125 3.40625 C 3.957031 3.40625 4.519531 3.226562 4.96875 2.875 C 5.425781 2.519531 5.835938 1.90625 6.203125 1.03125 L 6.6875 -0.03125 L -0.0625 -15.28125 L 2.828125 -15.28125 L 8.15625 -3.0625 L 13.4375 -15.28125 Z M 16.15625 -15.28125 "/></g></g></g></g></svg>